<svg xmlns="http://www.w3.org/2000/svg" xmlns:xlink="http://www.w3.org/1999/xlink" width="500" zoomAndPan="magnify" viewBox="0 0 375 374.999991" height="500" preserveAspectRatio="xMidYMid meet" version="1.0"><defs><g/><clipPath id="ff478beab5"><path d="M 6.566406 33.609375 L 368.054688 33.609375 L 368.054688 341.710938 L 6.566406 341.710938 Z M 6.566406 33.609375 " clip-rule="nonzero"/></clipPath><clipPath id="28d8d613d1"><path d="M 26.269531 128.847656 L 128.269531 128.847656 L 128.269531 230.847656 L 26.269531 230.847656 Z M 26.269531 128.847656 " clip-rule="nonzero"/></clipPath><clipPath id="b736356a29"><path d="M 240 50.878906 L 346.960938 50.878906 L 346.960938 137.128906 L 240 137.128906 Z M 240 50.878906 " clip-rule="nonzero"/></clipPath></defs><g fill="#ffffff" fill-opacity="1"><g transform="translate(115.110371, 153.293928)"><g><path d="M 72.578125 -65.984375 C 72.578125 -70.046875 71.707031 -73.023438 69.96875 -74.921875 C 68.238281 -76.828125 65.515625 -77.78125 61.796875 -77.78125 C 61.546875 -77.78125 61.421875 -78.035156 61.421875 -78.546875 C 61.421875 -79.054688 61.546875 -79.3125 61.796875 -79.3125 L 67.125 -79.1875 C 70 -79.007812 72.328125 -78.921875 74.109375 -78.921875 C 75.628906 -78.921875 77.65625 -79.007812 80.1875 -79.1875 L 85.390625 -79.3125 C 85.566406 -79.3125 85.65625 -79.054688 85.65625 -78.546875 C 85.65625 -78.035156 85.566406 -77.78125 85.390625 -77.78125 C 81.921875 -77.78125 79.382812 -76.828125 77.78125 -74.921875 C 76.175781 -73.023438 75.375 -70.046875 75.375 -65.984375 L 75.375 -29.6875 C 75.375 -19.789062 72.707031 -12.09375 67.375 -6.59375 C 62.050781 -1.09375 54.863281 1.65625 45.8125 1.65625 C 39.550781 1.65625 34.09375 0.40625 29.4375 -2.09375 C 24.78125 -4.59375 21.179688 -8.125 18.640625 -12.6875 C 16.109375 -17.257812 14.84375 -22.546875 14.84375 -28.546875 L 14.84375 -69.03125 C 14.84375 -71.5625 14.566406 -73.421875 14.015625 -74.609375 C 13.472656 -75.796875 12.414062 -76.617188 10.84375 -77.078125 C 9.28125 -77.546875 6.847656 -77.78125 3.546875 -77.78125 C 3.378906 -77.78125 3.296875 -78.035156 3.296875 -78.546875 C 3.296875 -79.054688 3.378906 -79.3125 3.546875 -79.3125 L 9.640625 -79.1875 C 13.191406 -79.007812 16.023438 -78.921875 18.140625 -78.921875 C 20.429688 -78.921875 23.351562 -79.007812 26.90625 -79.1875 L 32.734375 -79.3125 C 32.992188 -79.3125 33.125 -79.054688 33.125 -78.546875 C 33.125 -78.035156 32.992188 -77.78125 32.734375 -77.78125 C 29.429688 -77.78125 27.019531 -77.523438 25.5 -77.015625 C 23.976562 -76.515625 22.941406 -75.648438 22.390625 -74.421875 C 21.847656 -73.191406 21.578125 -71.3125 21.578125 -68.78125 L 21.578125 -32.984375 C 21.578125 -23.085938 23.898438 -15.453125 28.546875 -10.078125 C 33.203125 -4.710938 39.71875 -2.03125 48.09375 -2.03125 C 55.789062 -2.03125 61.796875 -4.460938 66.109375 -9.328125 C 70.421875 -14.191406 72.578125 -20.9375 72.578125 -29.5625 Z M 72.578125 -65.984375 "/></g></g></g><g fill="#ffffff" fill-opacity="1"><g transform="translate(174.800578, 238.883594)"><g><path d="M 23.15625 -9.765625 C 23.15625 -7.273438 23.414062 -5.46875 23.9375 -4.34375 C 24.457031 -3.21875 25.441406 -2.453125 26.890625 -2.046875 C 28.335938 -1.648438 30.664062 -1.453125 33.875 -1.453125 C 34.039062 -1.453125 34.125 -1.207031 34.125 -0.71875 C 34.125 -0.238281 34.039062 0 33.875 0 C 31.46875 0 29.582031 -0.0390625 28.21875 -0.125 L 19.78125 -0.234375 L 11.703125 -0.125 C 10.253906 -0.0390625 8.28125 0 5.78125 0 C 5.539062 0 5.421875 -0.238281 5.421875 -0.71875 C 5.421875 -1.207031 5.539062 -1.453125 5.78125 -1.453125 C 8.914062 -1.453125 11.226562 -1.648438 12.71875 -2.046875 C 14.207031 -2.453125 15.234375 -3.238281 15.796875 -4.40625 C 16.359375 -5.570312 16.640625 -7.359375 16.640625 -9.765625 L 16.640625 -65.59375 C 16.640625 -68.007812 16.359375 -69.78125 15.796875 -70.90625 C 15.234375 -72.03125 14.207031 -72.8125 12.71875 -73.25 C 11.226562 -73.695312 8.914062 -73.921875 5.78125 -73.921875 C 5.539062 -73.921875 5.421875 -74.160156 5.421875 -74.640625 C 5.421875 -75.117188 5.539062 -75.359375 5.78125 -75.359375 L 11.703125 -75.234375 C 15.078125 -75.078125 17.769531 -75 19.78125 -75 C 22.03125 -75 24.84375 -75.078125 28.21875 -75.234375 L 33.875 -75.359375 C 34.039062 -75.359375 34.125 -75.117188 34.125 -74.640625 C 34.125 -74.160156 34.039062 -73.921875 33.875 -73.921875 C 30.75 -73.921875 28.441406 -73.675781 26.953125 -73.1875 C 25.460938 -72.707031 24.457031 -71.882812 23.9375 -70.71875 C 23.414062 -69.550781 23.15625 -67.765625 23.15625 -65.359375 Z M 23.15625 -9.765625 "/></g></g></g><path stroke-linecap="round" transform="matrix(0.504337, -0.555928, 0.555478, 0.503928, 135.155871, 207.679177)" fill="none" stroke-linejoin="miter" d="M 0.497282 -0.000753475 L 192.349401 -0.00120257 " stroke="#ffffff" stroke-width="1" stroke-opacity="1" stroke-miterlimit="4"/><g clip-path="url(#ff478beab5)"><path fill="#f4f4f4" d="M 15.738281 248.511719 L 15.738281 43.539062 C 15.738281 43.128906 16.066406 42.796875 16.476562 42.796875 L 358.144531 42.796875 C 358.550781 42.796875 358.882812 43.128906 358.882812 43.539062 L 358.882812 248.511719 Z M 358.144531 33.605469 L 16.476562 33.605469 C 11 33.605469 6.566406 38.054688 6.566406 43.539062 L 6.566406 275.039062 C 6.566406 280.527344 11 284.972656 16.476562 284.972656 L 161.28125 284.972656 L 161.28125 323.976562 L 128.324219 323.976562 C 123.433594 323.976562 119.472656 327.945312 119.472656 332.84375 C 119.472656 337.738281 123.433594 341.710938 128.324219 341.710938 L 246.292969 341.710938 C 251.183594 341.710938 255.144531 337.738281 255.144531 332.84375 C 255.144531 327.945312 251.183594 323.976562 246.292969 323.976562 L 213.339844 323.976562 L 213.339844 284.972656 L 358.144531 284.972656 C 363.613281 284.972656 368.050781 280.527344 368.050781 275.039062 L 368.050781 43.539062 C 368.050781 38.054688 363.613281 33.605469 358.144531 33.605469 " fill-opacity="1" fill-rule="nonzero"/></g><g clip-path="url(#28d8d613d1)"><path fill="#f4f4f4" d="M 77.269531 209.664062 C 69.355469 209.664062 61.765625 206.523438 56.167969 200.925781 C 50.574219 195.332031 47.429688 187.742188 47.429688 179.828125 C 47.441406 171.914062 50.582031 164.324219 56.179688 158.730469 C 61.773438 153.132812 69.363281 149.992188 77.277344 149.992188 C 85.191406 150 92.78125 153.140625 98.375 158.746094 C 103.972656 164.34375 107.105469 171.933594 107.105469 179.847656 C 107.085938 187.75 103.945312 195.332031 98.347656 200.925781 C 92.753906 206.515625 85.171875 209.65625 77.269531 209.664062 Z M 119.148438 192.433594 L 128.269531 189.246094 L 128.269531 170.511719 L 119.148438 167.324219 L 117.925781 164.371094 C 117.21875 162.777344 116.605469 161.183594 115.773438 159.226562 L 119.9375 150.441406 L 118.453125 148.941406 C 113.335938 143.832031 113.335938 143.832031 108.175781 138.726562 L 106.671875 137.242188 L 97.988281 141.34375 L 92.742188 139.160156 L 89.855469 137.964844 L 86.613281 128.847656 L 67.933594 128.847656 L 64.746094 137.964844 L 61.855469 139.167969 L 56.550781 141.34375 L 47.863281 137.175781 L 46.363281 138.664062 C 41.199219 143.761719 41.199219 143.761719 36.085938 148.875 L 34.597656 150.378906 L 38.765625 159.128906 C 37.929688 161.082031 37.316406 162.605469 36.609375 164.269531 L 35.386719 167.257812 L 26.269531 170.511719 L 26.269531 189.191406 L 35.386719 192.371094 L 36.589844 195.277344 L 38.765625 200.566406 L 34.597656 209.230469 L 36.085938 210.824219 C 41.199219 215.996094 41.199219 215.996094 46.363281 221.113281 L 47.863281 222.585938 L 56.550781 218.351562 L 61.730469 220.515625 L 64.644531 221.726562 L 67.832031 230.847656 L 86.613281 230.847656 L 89.792969 221.726562 L 92.707031 220.515625 L 97.988281 218.351562 L 106.707031 222.515625 L 108.203125 221.03125 C 113.371094 215.914062 113.371094 215.914062 118.488281 210.753906 L 119.964844 209.160156 L 115.773438 200.566406 L 117.9375 195.367188 L 119.148438 192.433594 " fill-opacity="1" fill-rule="nonzero"/></g><path fill="#f4f4f4" d="M 67.605469 188.566406 C 67.269531 188.566406 66.945312 188.457031 66.664062 188.257812 L 57.011719 181.121094 C 56.605469 180.824219 56.359375 180.351562 56.359375 179.847656 C 56.359375 179.339844 56.605469 178.859375 57.011719 178.558594 L 66.664062 171.414062 C 67.007812 171.160156 67.433594 171.0625 67.859375 171.117188 C 68.277344 171.179688 68.648438 171.40625 68.902344 171.75 C 69.425781 172.457031 69.273438 173.453125 68.566406 173.976562 L 60.597656 179.847656 L 68.566406 185.695312 C 68.910156 185.949219 69.136719 186.320312 69.199219 186.738281 C 69.253906 187.164062 69.15625 187.589844 68.902344 187.921875 C 68.59375 188.332031 68.113281 188.574219 67.605469 188.566406 " fill-opacity="1" fill-rule="nonzero"/><path fill="#f4f4f4" d="M 86.929688 188.566406 C 86.421875 188.574219 85.941406 188.332031 85.636719 187.921875 C 85.382812 187.589844 85.28125 187.164062 85.335938 186.738281 C 85.410156 186.320312 85.625 185.949219 85.96875 185.695312 L 93.9375 179.847656 L 85.96875 173.976562 C 85.265625 173.453125 85.109375 172.457031 85.636719 171.75 C 86.160156 171.042969 87.15625 170.890625 87.871094 171.414062 L 97.523438 178.558594 C 97.933594 178.859375 98.1875 179.339844 98.175781 179.847656 C 98.175781 180.351562 97.933594 180.824219 97.523438 181.121094 L 87.871094 188.269531 L 87.871094 188.257812 C 87.589844 188.457031 87.265625 188.566406 86.921875 188.566406 L 86.929688 188.566406 " fill-opacity="1" fill-rule="nonzero"/><path fill="#f4f4f4" d="M 71.5 195.59375 C 70.964844 195.585938 70.476562 195.320312 70.1875 194.878906 C 69.886719 194.445312 69.832031 193.882812 70.03125 193.394531 L 81.550781 165.085938 C 81.921875 164.324219 82.808594 163.980469 83.589844 164.296875 C 84.375 164.613281 84.773438 165.484375 84.503906 166.28125 L 72.984375 194.589844 C 72.742188 195.195312 72.152344 195.59375 71.5 195.59375 " fill-opacity="1" fill-rule="nonzero"/><g clip-path="url(#b736356a29)"><path fill="#f4f4f4" d="M 344.65625 66.390625 L 338.472656 66.390625 L 338.472656 59.773438 C 338.472656 59.539062 338.429688 59.3125 338.339844 59.097656 C 338.25 58.878906 338.125 58.6875 337.957031 58.523438 C 337.792969 58.359375 337.605469 58.230469 337.386719 58.140625 C 337.171875 58.050781 336.949219 58.003906 336.714844 58.003906 L 330.746094 58.003906 L 330.746094 52.648438 C 330.746094 52.414062 330.703125 52.1875 330.613281 51.972656 C 330.523438 51.753906 330.394531 51.5625 330.230469 51.398438 C 330.066406 51.234375 329.875 51.105469 329.660156 51.015625 C 329.445312 50.925781 329.222656 50.878906 328.988281 50.878906 L 242.066406 50.878906 C 241.832031 50.875 241.605469 50.917969 241.390625 51.007812 C 241.171875 51.097656 240.980469 51.222656 240.816406 51.390625 C 240.648438 51.558594 240.523438 51.75 240.433594 51.96875 C 240.347656 52.1875 240.304688 52.414062 240.308594 52.648438 L 240.308594 119.960938 C 240.304688 120.195312 240.347656 120.421875 240.433594 120.640625 C 240.523438 120.859375 240.648438 121.050781 240.816406 121.21875 C 240.980469 121.386719 241.171875 121.511719 241.390625 121.601562 C 241.605469 121.691406 241.832031 121.734375 242.066406 121.730469 L 248.035156 121.730469 L 248.035156 127.085938 C 248.03125 127.320312 248.074219 127.546875 248.160156 127.765625 C 248.25 127.984375 248.375 128.175781 248.542969 128.34375 C 248.707031 128.511719 248.898438 128.636719 249.117188 128.726562 C 249.332031 128.816406 249.558594 128.859375 249.792969 128.855469 L 255.976562 128.855469 L 255.976562 135.46875 C 255.976562 135.703125 256.019531 135.929688 256.109375 136.144531 C 256.199219 136.363281 256.324219 136.554688 256.492188 136.71875 C 256.65625 136.886719 256.847656 137.011719 257.0625 137.101562 C 257.277344 137.191406 257.5 137.238281 257.734375 137.238281 L 344.65625 137.238281 C 344.886719 137.234375 345.109375 137.1875 345.324219 137.097656 C 345.539062 137.003906 345.726562 136.878906 345.890625 136.710938 C 346.054688 136.546875 346.183594 136.355469 346.273438 136.140625 C 346.363281 135.925781 346.410156 135.703125 346.414062 135.46875 L 346.414062 68.128906 C 346.410156 67.898438 346.363281 67.675781 346.273438 67.460938 C 346.183594 67.25 346.054688 67.0625 345.890625 66.898438 C 345.726562 66.734375 345.535156 66.609375 345.324219 66.523438 C 345.109375 66.433594 344.886719 66.390625 344.65625 66.390625 Z M 266.5 97.167969 C 266.847656 97.511719 267.265625 97.679688 267.753906 97.675781 C 268.234375 97.6875 268.644531 97.515625 268.980469 97.167969 C 269.144531 97.003906 269.273438 96.8125 269.367188 96.597656 C 269.457031 96.378906 269.5 96.15625 269.5 95.921875 C 269.5 95.6875 269.457031 95.460938 269.367188 95.246094 C 269.273438 95.027344 269.144531 94.839844 268.980469 94.675781 L 264.128906 89.800781 C 263.796875 89.445312 263.390625 89.265625 262.902344 89.265625 L 251.550781 89.265625 L 251.550781 61.59375 L 334.957031 61.59375 L 334.957031 71.050781 L 269.40625 71.050781 C 269.191406 71.078125 268.992188 71.140625 268.800781 71.242188 C 268.613281 71.339844 268.445312 71.472656 268.304688 71.632812 C 268.160156 71.796875 268.054688 71.976562 267.976562 72.179688 C 267.902344 72.378906 267.863281 72.589844 267.863281 72.804688 C 267.863281 73.019531 267.902344 73.230469 267.976562 73.429688 C 268.054688 73.632812 268.160156 73.8125 268.304688 73.976562 C 268.445312 74.136719 268.613281 74.269531 268.800781 74.367188 C 268.992188 74.46875 269.191406 74.53125 269.40625 74.558594 L 334.957031 74.558594 L 334.957031 118.996094 L 324.296875 118.996094 L 320.007812 114.628906 C 319.660156 114.285156 319.242188 114.117188 318.753906 114.121094 C 318.273438 114.109375 317.863281 114.28125 317.53125 114.628906 C 317.363281 114.792969 317.234375 114.984375 317.144531 115.199219 C 317.054688 115.417969 317.007812 115.640625 317.007812 115.875 C 317.007812 116.109375 317.054688 116.335938 317.144531 116.550781 C 317.234375 116.769531 317.363281 116.957031 317.53125 117.121094 L 322.351562 121.996094 C 322.699219 122.339844 323.117188 122.511719 323.605469 122.503906 L 334.957031 122.503906 L 334.957031 125.34375 L 298.316406 125.34375 L 298.316406 122.90625 C 299.390625 122.566406 300.429688 122.136719 301.433594 121.621094 L 304.394531 124.566406 C 304.722656 124.925781 305.132812 125.101562 305.617188 125.105469 C 306.109375 125.097656 306.527344 124.917969 306.871094 124.566406 L 311.960938 119.453125 C 312.128906 119.289062 312.257812 119.097656 312.347656 118.882812 C 312.4375 118.667969 312.480469 118.441406 312.480469 118.207031 C 312.480469 117.972656 312.4375 117.746094 312.347656 117.53125 C 312.257812 117.316406 312.128906 117.125 311.960938 116.960938 L 309.027344 113.988281 C 309.539062 112.988281 309.964844 111.949219 310.308594 110.878906 L 314.464844 110.878906 C 314.699219 110.878906 314.921875 110.835938 315.136719 110.746094 C 315.355469 110.65625 315.542969 110.527344 315.707031 110.363281 C 315.875 110.195312 316 110.003906 316.089844 109.789062 C 316.179688 109.574219 316.222656 109.347656 316.222656 109.113281 L 316.222656 101.773438 C 316.226562 101.539062 316.183594 101.3125 316.097656 101.09375 C 316.007812 100.875 315.882812 100.683594 315.71875 100.515625 C 315.550781 100.347656 315.359375 100.222656 315.140625 100.132812 C 314.925781 100.042969 314.699219 100 314.464844 100.003906 L 310.308594 100.003906 C 309.964844 98.933594 309.539062 97.898438 309.03125 96.898438 L 311.960938 93.925781 C 312.128906 93.761719 312.257812 93.570312 312.347656 93.355469 C 312.4375 93.140625 312.480469 92.914062 312.480469 92.679688 C 312.480469 92.445312 312.4375 92.21875 312.347656 92.003906 C 312.257812 91.789062 312.128906 91.597656 311.960938 91.433594 L 306.925781 86.371094 C 306.578125 86.027344 306.160156 85.859375 305.671875 85.863281 C 305.1875 85.851562 304.78125 86.023438 304.445312 86.371094 L 301.488281 89.34375 C 300.488281 88.8125 299.449219 88.375 298.371094 88.03125 L 298.371094 83.855469 C 298.371094 83.621094 298.328125 83.398438 298.238281 83.183594 C 298.152344 82.96875 298.027344 82.777344 297.863281 82.613281 C 297.703125 82.449219 297.515625 82.320312 297.304688 82.226562 C 297.089844 82.136719 296.871094 82.089844 296.636719 82.085938 L 289.363281 82.085938 C 289.128906 82.085938 288.90625 82.128906 288.691406 82.21875 C 288.476562 82.308594 288.285156 82.4375 288.121094 82.605469 C 287.957031 82.769531 287.828125 82.960938 287.738281 83.175781 C 287.648438 83.394531 287.605469 83.621094 287.605469 83.855469 L 287.605469 88.03125 C 286.527344 88.378906 285.488281 88.816406 284.488281 89.34375 L 281.554688 86.371094 C 281.210938 86.027344 280.792969 85.859375 280.304688 85.863281 C 279.820312 85.851562 279.414062 86.023438 279.078125 86.371094 L 273.960938 91.515625 C 273.796875 91.679688 273.667969 91.867188 273.578125 92.085938 C 273.484375 92.300781 273.441406 92.527344 273.441406 92.761719 C 273.441406 92.996094 273.484375 93.21875 273.578125 93.4375 C 273.667969 93.652344 273.796875 93.839844 273.960938 94.003906 L 276.921875 96.980469 C 276.390625 97.976562 275.957031 99.011719 275.613281 100.085938 L 271.457031 100.085938 C 271.222656 100.074219 270.996094 100.109375 270.777344 100.1875 C 270.558594 100.269531 270.363281 100.386719 270.191406 100.546875 C 270.015625 100.703125 269.882812 100.890625 269.78125 101.101562 C 269.683594 101.316406 269.628906 101.539062 269.617188 101.773438 L 269.617188 109.03125 C 269.621094 109.265625 269.667969 109.488281 269.757812 109.703125 C 269.851562 109.917969 269.976562 110.109375 270.140625 110.273438 C 270.304688 110.441406 270.496094 110.566406 270.707031 110.660156 C 270.921875 110.75 271.144531 110.796875 271.378906 110.800781 L 275.535156 110.800781 C 275.878906 111.875 276.316406 112.910156 276.839844 113.90625 L 273.882812 116.878906 C 273.714844 117.042969 273.585938 117.234375 273.496094 117.449219 C 273.40625 117.667969 273.359375 117.890625 273.359375 118.125 C 273.359375 118.359375 273.40625 118.585938 273.496094 118.800781 C 273.585938 119.019531 273.714844 119.207031 273.882812 119.371094 L 279 124.488281 C 279.328125 124.84375 279.738281 125.023438 280.222656 125.023438 C 280.714844 125.019531 281.132812 124.839844 281.476562 124.488281 L 284.40625 121.542969 C 285.414062 122.046875 286.453125 122.476562 287.527344 122.828125 L 287.527344 125.265625 L 251.550781 125.265625 L 251.550781 92.800781 L 262.210938 92.800781 Z M 294.828125 121.542969 L 294.828125 125.34375 L 291.097656 125.34375 L 291.097656 121.542969 C 291.09375 121.132812 290.964844 120.765625 290.710938 120.445312 C 290.457031 120.125 290.132812 119.921875 289.738281 119.828125 C 288.097656 119.425781 286.570312 118.765625 285.152344 117.84375 C 284.871094 117.65625 284.558594 117.558594 284.222656 117.550781 C 283.730469 117.554688 283.3125 117.734375 282.96875 118.085938 L 280.304688 120.765625 L 277.640625 118.085938 L 280.304688 115.40625 C 280.585938 115.109375 280.75 114.757812 280.792969 114.351562 C 280.835938 113.941406 280.753906 113.5625 280.542969 113.210938 C 279.636719 111.789062 279 110.25 278.625 108.605469 C 278.539062 108.203125 278.332031 107.875 278.011719 107.617188 C 277.695312 107.359375 277.328125 107.234375 276.921875 107.238281 L 273.214844 107.238281 L 273.214844 103.488281 L 276.972656 103.488281 C 277.382812 103.492188 277.746094 103.363281 278.066406 103.109375 C 278.386719 102.851562 278.589844 102.523438 278.679688 102.121094 C 279.050781 100.472656 279.691406 98.9375 280.597656 97.515625 C 280.808594 97.164062 280.890625 96.785156 280.847656 96.375 C 280.800781 95.96875 280.640625 95.613281 280.359375 95.316406 L 277.691406 92.640625 L 280.359375 89.960938 L 283.023438 92.640625 C 283.375 92.972656 283.792969 93.140625 284.273438 93.148438 C 284.613281 93.152344 284.921875 93.0625 285.207031 92.878906 C 286.613281 92.011719 288.125 91.40625 289.738281 91.058594 C 290.136719 90.96875 290.464844 90.765625 290.71875 90.445312 C 290.972656 90.121094 291.097656 89.757812 291.097656 89.34375 L 291.097656 85.703125 L 294.828125 85.703125 L 294.828125 89.480469 C 294.859375 89.875 295.007812 90.222656 295.277344 90.519531 C 295.542969 90.8125 295.875 90.992188 296.265625 91.058594 C 297.90625 91.433594 299.433594 92.078125 300.847656 92.988281 C 301.140625 93.171875 301.460938 93.261719 301.808594 93.253906 C 302.28125 93.246094 302.691406 93.078125 303.035156 92.746094 L 305.699219 90.066406 L 308.363281 92.746094 L 305.699219 95.425781 C 305.402344 95.714844 305.234375 96.066406 305.1875 96.480469 C 305.140625 96.894531 305.234375 97.273438 305.457031 97.621094 C 306.34375 99.050781 306.976562 100.585938 307.351562 102.230469 C 307.441406 102.628906 307.648438 102.953125 307.96875 103.210938 C 308.285156 103.464844 308.648438 103.59375 309.054688 103.59375 L 312.839844 103.59375 L 312.839844 107.34375 L 308.949219 107.34375 C 308.542969 107.347656 308.179688 107.476562 307.859375 107.730469 C 307.542969 107.984375 307.335938 108.3125 307.242188 108.710938 C 306.867188 110.351562 306.238281 111.886719 305.351562 113.316406 C 305.125 113.664062 305.035156 114.046875 305.082031 114.460938 C 305.125 114.871094 305.296875 115.222656 305.59375 115.515625 L 308.257812 118.191406 L 305.59375 120.871094 L 302.925781 118.191406 C 302.59375 117.84375 302.183594 117.664062 301.703125 117.65625 C 301.351562 117.660156 301.03125 117.757812 300.742188 117.953125 C 299.320312 118.84375 297.792969 119.476562 296.160156 119.855469 C 295.773438 119.949219 295.457031 120.15625 295.207031 120.46875 C 294.960938 120.785156 294.832031 121.140625 294.828125 121.542969 Z M 259.492188 128.855469 L 336.769531 128.855469 C 337 128.855469 337.226562 128.808594 337.441406 128.71875 C 337.65625 128.628906 337.847656 128.5 338.011719 128.335938 C 338.175781 128.171875 338.304688 127.980469 338.394531 127.761719 C 338.484375 127.546875 338.527344 127.320312 338.527344 127.085938 L 338.527344 69.898438 L 342.898438 69.898438 L 342.898438 133.703125 L 259.492188 133.703125 Z M 248.035156 59.773438 L 248.035156 118.21875 L 243.824219 118.21875 L 243.824219 54.417969 L 327.230469 54.417969 L 327.230469 58.003906 L 249.792969 58.003906 C 249.558594 58 249.332031 58.042969 249.117188 58.132812 C 248.898438 58.222656 248.707031 58.347656 248.542969 58.515625 C 248.375 58.683594 248.25 58.875 248.160156 59.09375 C 248.074219 59.3125 248.03125 59.539062 248.035156 59.773438 Z M 248.035156 59.773438 " fill-opacity="1" fill-rule="nonzero"/></g><path fill="#f4f4f4" d="M 303.78125 105.46875 C 303.78125 104.753906 303.710938 104.046875 303.570312 103.347656 C 303.433594 102.648438 303.226562 101.96875 302.957031 101.308594 C 302.683594 100.648438 302.351562 100.023438 301.957031 99.429688 C 301.5625 98.835938 301.113281 98.285156 300.609375 97.78125 C 300.109375 97.273438 299.5625 96.824219 298.972656 96.425781 C 298.382812 96.03125 297.757812 95.695312 297.101562 95.421875 C 296.445312 95.148438 295.769531 94.941406 295.070312 94.804688 C 294.375 94.664062 293.671875 94.59375 292.960938 94.59375 C 292.25 94.59375 291.546875 94.664062 290.851562 94.804688 C 290.152344 94.941406 289.476562 95.148438 288.820312 95.421875 C 288.164062 95.695312 287.542969 96.03125 286.949219 96.425781 C 286.359375 96.824219 285.8125 97.273438 285.3125 97.78125 C 284.808594 98.285156 284.359375 98.835938 283.964844 99.429688 C 283.570312 100.023438 283.238281 100.648438 282.964844 101.308594 C 282.695312 101.96875 282.488281 102.648438 282.351562 103.347656 C 282.210938 104.046875 282.144531 104.753906 282.144531 105.46875 C 282.144531 106.183594 282.210938 106.890625 282.351562 107.589844 C 282.488281 108.292969 282.695312 108.972656 282.964844 109.632812 C 283.238281 110.292969 283.570312 110.917969 283.964844 111.511719 C 284.359375 112.105469 284.808594 112.65625 285.3125 113.160156 C 285.8125 113.664062 286.359375 114.117188 286.949219 114.511719 C 287.542969 114.910156 288.164062 115.242188 288.820312 115.515625 C 289.476562 115.789062 290.152344 115.996094 290.851562 116.136719 C 291.546875 116.273438 292.25 116.34375 292.960938 116.34375 C 293.671875 116.34375 294.375 116.273438 295.070312 116.136719 C 295.769531 115.996094 296.445312 115.789062 297.101562 115.515625 C 297.757812 115.242188 298.382812 114.910156 298.972656 114.511719 C 299.5625 114.117188 300.109375 113.664062 300.609375 113.160156 C 301.113281 112.65625 301.5625 112.105469 301.957031 111.511719 C 302.351562 110.917969 302.683594 110.292969 302.957031 109.632812 C 303.226562 108.972656 303.433594 108.292969 303.570312 107.589844 C 303.710938 106.890625 303.78125 106.183594 303.78125 105.46875 Z M 292.960938 112.808594 C 292.480469 112.808594 292.007812 112.761719 291.535156 112.667969 C 291.066406 112.574219 290.609375 112.433594 290.167969 112.25 C 289.722656 112.066406 289.304688 111.839844 288.90625 111.570312 C 288.507812 111.304688 288.136719 111 287.796875 110.660156 C 287.460938 110.320312 287.15625 109.949219 286.890625 109.546875 C 286.625 109.148438 286.398438 108.722656 286.214844 108.277344 C 286.03125 107.832031 285.894531 107.375 285.800781 106.902344 C 285.707031 106.429688 285.660156 105.953125 285.660156 105.46875 C 285.660156 104.988281 285.707031 104.511719 285.800781 104.039062 C 285.894531 103.566406 286.03125 103.105469 286.214844 102.660156 C 286.398438 102.214844 286.625 101.792969 286.890625 101.390625 C 287.15625 100.992188 287.460938 100.621094 287.796875 100.28125 C 288.136719 99.9375 288.507812 99.636719 288.90625 99.367188 C 289.304688 99.101562 289.722656 98.875 290.167969 98.6875 C 290.609375 98.503906 291.066406 98.367188 291.535156 98.273438 C 292.007812 98.175781 292.480469 98.128906 292.960938 98.128906 C 293.441406 98.128906 293.914062 98.175781 294.386719 98.273438 C 294.855469 98.367188 295.3125 98.503906 295.753906 98.6875 C 296.199219 98.875 296.617188 99.101562 297.019531 99.367188 C 297.417969 99.636719 297.785156 99.9375 298.125 100.28125 C 298.464844 100.621094 298.765625 100.992188 299.03125 101.390625 C 299.296875 101.792969 299.523438 102.214844 299.707031 102.660156 C 299.890625 103.105469 300.027344 103.566406 300.121094 104.039062 C 300.214844 104.511719 300.261719 104.988281 300.261719 105.46875 C 300.261719 105.953125 300.214844 106.429688 300.121094 106.902344 C 300.027344 107.375 299.890625 107.832031 299.707031 108.277344 C 299.523438 108.722656 299.296875 109.148438 299.03125 109.546875 C 298.765625 109.949219 298.464844 110.320312 298.125 110.660156 C 297.785156 111 297.417969 111.304688 297.019531 111.570312 C 296.617188 111.839844 296.199219 112.066406 295.753906 112.25 C 295.3125 112.433594 294.855469 112.574219 294.386719 112.667969 C 293.914062 112.761719 293.441406 112.808594 292.960938 112.808594 Z M 292.960938 112.808594 " fill-opacity="1" fill-rule="nonzero"/></svg>